<svg width="112" height="122" viewBox="0 0 112 122" fill="none" xmlns="http://www.w3.org/2000/svg">
<g clip-path="url(#clip0_44_30)">
<path d="M20.2598 122.087H63.2598V94.3285C63.2597 88.3965 61.5766 82.5863 58.4062 77.5726L39.418 47.5433L39.418 19.764C39.4178 8.57306 30.3453 -0.498657 19.1543 -0.498657H0L0 101.828C6.73484e-05 113.017 9.07077 122.087 20.2598 122.087ZM39.418 114.828V61.1273L52.2705 81.4525C54.7067 85.3053 55.9999 89.7701 56 94.3285V114.828H39.418ZM20.2598 114.828C13.08 114.827 7.25983 109.007 7.25977 101.828L7.25977 6.76013H19.1543C26.3361 6.76013 32.158 12.5822 32.1582 19.764L32.1582 114.828H20.2598Z" fill="#3B396D"/>
<path d="M91.2578 0.171257L48.2578 0.171257V27.93C48.2579 33.862 49.941 39.6722 53.1113 44.6859L72.0996 74.7152V102.494C72.0998 113.685 81.1723 122.757 92.3633 122.757H111.518V20.431C111.518 9.24204 102.447 0.17132 91.2578 0.171257ZM72.0996 7.43102V61.1312L59.2471 40.806C56.8108 36.9532 55.5177 32.4885 55.5176 27.93V7.43102L72.0996 7.43102ZM91.2578 7.43102C98.4376 7.43109 104.258 13.2512 104.258 20.431V115.498H92.3633C85.1814 115.498 79.3595 109.676 79.3594 102.494V7.43102L91.2578 7.43102Z" fill="#3B396D"/>
</g>
<defs>
<clipPath id="clip0_44_30">
<rect width="112" height="122" fill="white"/>
</clipPath>
</defs>
</svg>
