<svg width="620" height="145" viewBox="0 0 620 145" fill="none" xmlns="http://www.w3.org/2000/svg">
<g clip-path="url(#clip0_44_2)">
<path d="M172.381 63.9322C168.031 63.9322 164.085 62.9068 160.542 60.8559C157.062 58.8051 154.297 56.0395 152.246 52.5593C150.257 49.0169 149.263 45.1017 149.263 40.8136C149.263 36.4633 150.257 32.548 152.246 29.0678C154.297 25.5876 157.062 22.8531 160.542 20.8644C164.085 18.8136 168.031 17.7881 172.381 17.7881C175.799 17.7881 178.969 18.4407 181.89 19.7458C184.811 20.9887 187.328 22.822 189.441 25.2458L183.847 30.839C182.48 29.2232 180.802 28.0113 178.814 27.2034C176.887 26.3333 174.743 25.8983 172.381 25.8983C169.585 25.8983 167.099 26.5508 164.924 27.8559C162.749 29.0989 161.04 30.839 159.797 33.0763C158.554 35.3136 157.932 37.8927 157.932 40.8136C157.932 43.7345 158.554 46.3136 159.797 48.5508C161.04 50.7881 162.749 52.5593 164.924 53.8644C167.099 55.1695 169.585 55.822 172.381 55.822C174.743 55.822 176.887 55.4181 178.814 54.6102C180.802 53.7401 182.511 52.4972 183.941 50.8814L189.441 56.4746C187.39 58.8362 184.873 60.6695 181.89 61.9746C178.969 63.2797 175.799 63.9322 172.381 63.9322ZM214.749 63.9322C210.71 63.9322 207.043 62.9379 203.749 60.9492C200.455 58.8983 197.845 56.1328 195.919 52.6525C194.054 49.1723 193.122 45.2571 193.122 40.9068C193.122 36.5565 194.054 32.6412 195.919 29.161C197.845 25.6808 200.424 22.9153 203.656 20.8644C206.95 18.8136 210.648 17.7881 214.749 17.7881C218.105 17.7881 221.088 18.5028 223.698 19.9322C226.371 21.2994 228.515 23.226 230.131 25.7119C231.746 28.1356 232.648 30.9633 232.834 34.1949V47.5254C232.648 50.6949 231.746 53.5226 230.131 56.0085C228.577 58.4944 226.464 60.452 223.792 61.8814C221.181 63.2486 218.167 63.9322 214.749 63.9322ZM216.148 56.0085C220.311 56.0085 223.667 54.6102 226.215 51.8136C228.763 48.9548 230.037 45.3192 230.037 40.9068C230.037 37.8616 229.447 35.2203 228.266 32.983C227.148 30.6836 225.532 28.9124 223.419 27.6695C221.306 26.3644 218.851 25.7119 216.054 25.7119C213.258 25.7119 210.772 26.3644 208.597 27.6695C206.484 28.9746 204.806 30.7768 203.563 33.0763C202.382 35.3136 201.792 37.8927 201.792 40.8136C201.792 43.7966 202.382 46.4379 203.563 48.7373C204.806 50.9746 206.515 52.7458 208.69 54.0508C210.865 55.3559 213.351 56.0085 216.148 56.0085ZM229.478 63V51.0678L231.063 40.2542L229.478 29.5339V18.7203H237.961V63H229.478ZM249.244 63V18.7203H257.634V63H249.244ZM257.634 37.7373L254.464 36.339C254.464 30.6836 255.769 26.178 258.379 22.822C260.989 19.4661 264.749 17.7881 269.659 17.7881C271.896 17.7881 273.916 18.1921 275.718 19C277.521 19.7458 279.199 21.0198 280.752 22.822L275.252 28.5085C274.32 27.5141 273.295 26.7994 272.176 26.3644C271.057 25.9294 269.752 25.7119 268.261 25.7119C265.153 25.7119 262.605 26.7062 260.617 28.6949C258.628 30.6836 257.634 33.6977 257.634 37.7373ZM329.688 63V37.178C329.688 33.822 328.632 31.0565 326.519 28.8814C324.406 26.7062 321.672 25.6186 318.316 25.6186C316.078 25.6186 314.09 26.1158 312.35 27.1102C310.609 28.1045 309.242 29.4718 308.248 31.2119C307.253 32.952 306.756 34.9407 306.756 37.178L303.307 35.2203C303.307 31.8644 304.053 28.8814 305.544 26.2712C307.036 23.661 309.118 21.6102 311.79 20.1186C314.463 18.565 317.477 17.7881 320.833 17.7881C324.188 17.7881 327.14 18.6271 329.688 20.3051C332.299 21.983 334.35 24.1893 335.841 26.9237C337.333 29.596 338.078 32.4548 338.078 35.5V63H329.688ZM298.366 63V18.7203H306.756V63H298.366ZM365.285 63.9322C360.872 63.9322 356.895 62.9379 353.353 60.9492C349.81 58.8983 347.014 56.1328 344.963 52.6525C342.912 49.1723 341.887 45.226 341.887 40.8136C341.887 36.4633 342.881 32.548 344.87 29.0678C346.92 25.5876 349.655 22.8531 353.073 20.8644C356.553 18.8136 360.437 17.7881 364.725 17.7881C368.827 17.7881 372.432 18.7203 375.539 20.5847C378.709 22.4492 381.163 25.0282 382.903 28.322C384.706 31.6158 385.607 35.3446 385.607 39.5085C385.607 40.1299 385.576 40.8136 385.514 41.5593C385.451 42.2429 385.327 43.0508 385.141 43.9831H347.759V36.9915H380.666L377.59 39.6949C377.59 36.7119 377.062 34.1949 376.005 32.1441C374.949 30.0311 373.457 28.4153 371.531 27.2966C369.604 26.1158 367.274 25.5254 364.539 25.5254C361.68 25.5254 359.163 26.1469 356.988 27.3898C354.813 28.6328 353.135 30.3729 351.954 32.6102C350.774 34.8475 350.183 37.4887 350.183 40.5339C350.183 43.6412 350.805 46.3757 352.048 48.7373C353.29 51.0367 355.062 52.839 357.361 54.1441C359.661 55.387 362.302 56.0085 365.285 56.0085C367.771 56.0085 370.039 55.5734 372.09 54.7034C374.203 53.8333 376.005 52.5282 377.497 50.7881L382.903 56.2881C380.79 58.774 378.18 60.6695 375.073 61.9746C372.028 63.2797 368.765 63.9322 365.285 63.9322ZM399.262 63V0.169491H407.652V63H399.262ZM388.355 26.3644V18.7203H418.559V26.3644H388.355ZM438.523 63L420.998 18.7203H429.761L442.438 53.2119H439.642L452.227 18.7203H457.074L469.659 53.2119H466.862L479.54 18.7203H488.303L470.871 63H465.93L453.159 29.5339H456.235L443.371 63H438.523ZM513.783 63.9322C509.432 63.9322 505.517 62.9068 502.037 60.8559C498.557 58.8051 495.791 56.0395 493.74 52.5593C491.689 49.0169 490.664 45.0706 490.664 40.7203C490.664 36.4322 491.689 32.5791 493.74 29.161C495.791 25.6808 498.557 22.9153 502.037 20.8644C505.517 18.8136 509.432 17.7881 513.783 17.7881C518.071 17.7881 521.955 18.8136 525.435 20.8644C528.978 22.8531 531.774 25.5876 533.825 29.0678C535.876 32.548 536.901 36.4322 536.901 40.7203C536.901 45.0706 535.876 49.0169 533.825 52.5593C531.774 56.0395 528.978 58.8051 525.435 60.8559C521.955 62.9068 518.071 63.9322 513.783 63.9322ZM513.783 55.822C516.579 55.822 519.065 55.1695 521.24 53.8644C523.415 52.5593 525.124 50.7881 526.367 48.5508C527.61 46.2514 528.232 43.6412 528.232 40.7203C528.232 37.8616 527.579 35.3136 526.274 33.0763C525.031 30.839 523.322 29.0989 521.147 27.8559C519.034 26.5508 516.579 25.8983 513.783 25.8983C510.986 25.8983 508.5 26.5508 506.325 27.8559C504.15 29.0989 502.441 30.839 501.198 33.0763C499.955 35.3136 499.333 37.8616 499.333 40.7203C499.333 43.6412 499.955 46.2514 501.198 48.5508C502.441 50.7881 504.15 52.5593 506.325 53.8644C508.5 55.1695 510.986 55.822 513.783 55.822ZM545.422 63V18.7203H553.812V63H545.422ZM553.812 37.7373L550.643 36.339C550.643 30.6836 551.948 26.178 554.558 22.822C557.168 19.4661 560.928 17.7881 565.837 17.7881C568.075 17.7881 570.095 18.1921 571.897 19C573.699 19.7458 575.377 21.0198 576.931 22.822L571.431 28.5085C570.498 27.5141 569.473 26.7994 568.354 26.3644C567.236 25.9294 565.931 25.7119 564.439 25.7119C561.332 25.7119 558.784 26.7062 556.795 28.6949C554.806 30.6836 553.812 33.6977 553.812 37.7373ZM610.245 63L589.55 40.3475L610.058 18.7203H620.219L597.38 42.5847L597.753 37.7373L621.058 63H610.245ZM581.906 63V-3.55932H590.295V63H581.906ZM172.475 129.932C168 129.932 163.96 128.938 160.356 126.949C156.814 124.898 153.986 122.102 151.873 118.559C149.822 115.017 148.797 111.04 148.797 106.627C148.797 102.215 149.822 98.2684 151.873 94.7881C153.924 91.2458 156.689 88.4492 160.169 86.3983C163.712 84.3475 167.627 83.322 171.915 83.322C176.079 83.322 179.746 84.2853 182.915 86.2119C186.147 88.1384 188.664 90.7797 190.466 94.1356C192.331 97.4915 193.263 101.314 193.263 105.602C193.263 106.347 193.201 107.124 193.076 107.932C193.014 108.678 192.89 109.517 192.703 110.449H155.975V102.059H187.39L183.568 105.415C183.444 102.681 182.915 100.381 181.983 98.5169C181.051 96.6525 179.715 95.2232 177.975 94.2288C176.297 93.2345 174.215 92.7373 171.729 92.7373C169.119 92.7373 166.85 93.2966 164.924 94.4153C162.997 95.5339 161.506 97.1186 160.449 99.1695C159.393 101.158 158.864 103.551 158.864 106.347C158.864 109.144 159.424 111.599 160.542 113.712C161.661 115.825 163.246 117.472 165.297 118.653C167.347 119.771 169.709 120.331 172.381 120.331C174.681 120.331 176.794 119.927 178.72 119.119C180.709 118.311 182.387 117.13 183.754 115.576L190.28 122.195C188.105 124.743 185.463 126.669 182.356 127.975C179.249 129.28 175.955 129.932 172.475 129.932ZM218.915 129.932C215.124 129.932 211.737 129.093 208.754 127.415C205.833 125.737 203.534 123.438 201.856 120.517C200.24 117.534 199.432 114.116 199.432 110.263V84.2542H209.686V109.797C209.686 111.972 210.028 113.836 210.712 115.39C211.457 116.881 212.514 118.031 213.881 118.839C215.311 119.647 216.988 120.051 218.915 120.051C221.898 120.051 224.166 119.181 225.72 117.441C227.336 115.638 228.144 113.09 228.144 109.797V84.2542H238.398V110.263C238.398 114.178 237.559 117.627 235.881 120.61C234.265 123.531 231.997 125.831 229.076 127.508C226.155 129.124 222.768 129.932 218.915 129.932ZM247.776 129V84.2542H258.03V129H247.776ZM258.03 104.11L254.488 102.339C254.488 96.6836 255.731 92.1158 258.217 88.6356C260.765 85.0932 264.587 83.322 269.683 83.322C271.92 83.322 273.94 83.726 275.742 84.5339C277.545 85.3418 279.223 86.6469 280.776 88.4492L274.064 95.3475C273.256 94.4774 272.355 93.8559 271.361 93.4831C270.367 93.1102 269.217 92.9237 267.912 92.9237C265.053 92.9237 262.691 93.8249 260.827 95.6271C258.963 97.4294 258.03 100.257 258.03 104.11ZM303.949 129.932C299.598 129.932 295.652 128.907 292.11 126.856C288.567 124.743 285.74 121.915 283.627 118.373C281.576 114.831 280.55 110.884 280.55 106.534C280.55 102.184 281.576 98.2684 283.627 94.7881C285.74 91.3079 288.567 88.5424 292.11 86.4915C295.652 84.3785 299.598 83.322 303.949 83.322C308.361 83.322 312.339 84.3475 315.881 86.3983C319.423 88.4492 322.22 91.2458 324.271 94.7881C326.384 98.2684 327.44 102.184 327.44 106.534C327.44 110.884 326.384 114.831 324.271 118.373C322.22 121.915 319.423 124.743 315.881 126.856C312.339 128.907 308.361 129.932 303.949 129.932ZM303.949 120.051C306.497 120.051 308.734 119.492 310.661 118.373C312.649 117.192 314.172 115.576 315.228 113.525C316.347 111.475 316.906 109.144 316.906 106.534C316.906 103.924 316.347 101.624 315.228 99.6356C314.11 97.6469 312.587 96.0932 310.661 94.9746C308.734 93.7938 306.497 93.2034 303.949 93.2034C301.463 93.2034 299.226 93.7938 297.237 94.9746C295.31 96.0932 293.788 97.6469 292.669 99.6356C291.613 101.624 291.084 103.924 291.084 106.534C291.084 109.144 291.613 111.475 292.669 113.525C293.788 115.576 295.31 117.192 297.237 118.373C299.226 119.492 301.463 120.051 303.949 120.051ZM358.993 129.932C355.575 129.932 352.53 129.218 349.858 127.788C347.185 126.297 345.072 124.277 343.519 121.729C342.027 119.181 341.281 116.291 341.281 113.059V100.195C341.281 96.9633 342.058 94.0734 343.612 91.5254C345.165 88.9774 347.278 86.9887 349.951 85.5593C352.623 84.0678 355.637 83.322 358.993 83.322C363.033 83.322 366.668 84.3785 369.9 86.4915C373.194 88.5424 375.773 91.339 377.637 94.8814C379.564 98.3616 380.527 102.308 380.527 106.72C380.527 111.071 379.564 115.017 377.637 118.559C375.773 122.04 373.194 124.805 369.9 126.856C366.668 128.907 363.033 129.932 358.993 129.932ZM335.036 147.644V84.2542H345.29V96.2797L343.519 107.186L345.29 118V147.644H335.036ZM357.315 120.237C359.801 120.237 361.976 119.678 363.841 118.559C365.767 117.379 367.259 115.763 368.315 113.712C369.434 111.661 369.993 109.299 369.993 106.627C369.993 103.955 369.434 101.593 368.315 99.5424C367.259 97.4915 365.767 95.9068 363.841 94.7881C361.976 93.6073 359.801 93.0169 357.315 93.0169C354.829 93.0169 352.623 93.6073 350.697 94.7881C348.77 95.9068 347.278 97.4915 346.222 99.5424C345.165 101.593 344.637 103.955 344.637 106.627C344.637 109.299 345.165 111.661 346.222 113.712C347.278 115.763 348.77 117.379 350.697 118.559C352.623 119.678 354.829 120.237 357.315 120.237ZM408.967 129.932C404.492 129.932 400.452 128.938 396.848 126.949C393.306 124.898 390.478 122.102 388.365 118.559C386.314 115.017 385.289 111.04 385.289 106.627C385.289 102.215 386.314 98.2684 388.365 94.7881C390.416 91.2458 393.181 88.4492 396.661 86.3983C400.204 84.3475 404.119 83.322 408.407 83.322C412.571 83.322 416.238 84.2853 419.407 86.2119C422.639 88.1384 425.156 90.7797 426.958 94.1356C428.822 97.4915 429.755 101.314 429.755 105.602C429.755 106.347 429.693 107.124 429.568 107.932C429.506 108.678 429.382 109.517 429.195 110.449H392.467V102.059H423.882L420.06 105.415C419.935 102.681 419.407 100.381 418.475 98.5169C417.543 96.6525 416.207 95.2232 414.467 94.2288C412.789 93.2345 410.707 92.7373 408.221 92.7373C405.611 92.7373 403.342 93.2966 401.416 94.4153C399.489 95.5339 397.998 97.1186 396.941 99.1695C395.885 101.158 395.356 103.551 395.356 106.347C395.356 109.144 395.916 111.599 397.034 113.712C398.153 115.825 399.738 117.472 401.789 118.653C403.839 119.771 406.201 120.331 408.873 120.331C411.173 120.331 413.286 119.927 415.212 119.119C417.201 118.311 418.879 117.13 420.246 115.576L426.772 122.195C424.596 124.743 421.955 126.669 418.848 127.975C415.741 129.28 412.447 129.932 408.967 129.932ZM444.873 129.932C443.133 129.932 441.673 129.342 440.492 128.161C439.373 126.918 438.814 125.458 438.814 123.78C438.814 122.04 439.373 120.61 440.492 119.492C441.673 118.311 443.133 117.72 444.873 117.72C446.613 117.72 448.043 118.311 449.161 119.492C450.342 120.61 450.932 122.04 450.932 123.78C450.932 125.458 450.342 126.918 449.161 128.161C448.043 129.342 446.613 129.932 444.873 129.932Z" fill="#3B396D"/>
<path d="M20.2598 132.087H63.2598V104.328C63.2597 98.3965 61.5766 92.5863 58.4062 87.5726L39.418 57.5433L39.418 29.764C39.4178 18.5731 30.3453 9.50134 19.1543 9.50134H0L0 111.828C6.73484e-05 123.017 9.07077 132.087 20.2598 132.087ZM39.418 124.828V71.1273L52.2705 91.4525C54.7067 95.3053 55.9999 99.7701 56 104.328V124.828H39.418ZM20.2598 124.828C13.08 124.827 7.25983 119.007 7.25977 111.828L7.25977 16.7601H19.1543C26.3361 16.7601 32.158 22.5822 32.1582 29.764L32.1582 124.828H20.2598Z" fill="#3B396D"/>
<path d="M91.2578 10.1713L48.2578 10.1713V37.93C48.2579 43.862 49.941 49.6722 53.1113 54.6859L72.0996 84.7152V112.494C72.0998 123.685 81.1723 132.757 92.3633 132.757H111.518V30.431C111.518 19.242 102.447 10.1713 91.2578 10.1713ZM72.0996 17.431V71.1312L59.2471 50.806C56.8108 46.9532 55.5177 42.4885 55.5176 37.93V17.431H72.0996ZM91.2578 17.431C98.4376 17.4311 104.258 23.2512 104.258 30.431V125.498H92.3633C85.1814 125.498 79.3595 119.676 79.3594 112.494V17.431L91.2578 17.431Z" fill="#3B396D"/>
</g>
<defs>
<clipPath id="clip0_44_2">
<rect width="620" height="145" fill="white"/>
</clipPath>
</defs>
</svg>
